<svg width="52" height="17" viewBox="0 0 52 17" fill="none" xmlns="http://www.w3.org/2000/svg">
<g clip-path="url(#clip0_41_19)">
<rect width="17" height="17" rx="5.5" fill="black"/>
<path d="M12.2236 7.09472C12.3785 6.21846 13.6338 6.21216 13.7979 7.0869L14.4609 10.6221L14.7734 8.58886C14.9085 7.7108 16.1605 7.67432 16.3467 8.54296L17.3916 13.416L16.6084 13.584L15.5645 8.71093L15.252 10.7441C15.1148 11.6334 13.8407 11.6541 13.6748 10.7695L13.0117 7.23437L12.0752 12.5439C11.9477 13.2656 10.9969 13.4504 10.6084 12.8291L9.0791 10.3808H9.07812L8.37891 12.126L7.9707 13.3525C7.86183 13.6791 7.55617 13.9003 7.21191 13.9004H5.36523C4.95163 13.9004 4.60601 13.5847 4.56836 13.1728L4.17871 8.88671L0.283203 12.7832L-0.283203 12.2168L3.61328 8.32128C4.09289 7.84167 4.91418 8.13896 4.97559 8.81444L5.36523 13.0996H7.21191L7.62012 11.873L7.62402 11.8623L7.62891 11.8516L8.33594 10.083C8.57929 9.47543 9.40966 9.40124 9.75684 9.95604L11.2871 12.4043L12.2236 7.09472Z" fill="white"/>
</g>
<path d="M47.6275 13.156C45.8395 13.156 44.2075 12.088 44.2075 9.74799C44.2075 7.40799 45.8395 6.35199 47.6275 6.35199C49.4155 6.35199 51.0475 7.40799 51.0475 9.74799C51.0475 12.088 49.4155 13.156 47.6275 13.156ZM47.6275 11.62C48.4315 11.62 49.0315 11.104 49.0315 9.74799C49.0315 8.37999 48.4075 7.88799 47.6275 7.88799C46.8475 7.88799 46.2235 8.37999 46.2235 9.74799C46.2235 11.104 46.8235 11.62 47.6275 11.62Z" fill="black"/>
<path d="M41.3387 13V4.29999H43.3187V13H41.3387Z" fill="black"/>
<path d="M38.1099 13V4.29999H40.0899V13H38.1099Z" fill="black"/>
<path d="M34.8812 13V6.54399H36.8612V13H34.8812ZM34.8812 5.88399V4.29999H36.8612V5.88399H34.8812Z" fill="black"/>
<path d="M30.1525 13V6.544H32.0605V7.768C32.3605 7.012 32.9005 6.532 33.8245 6.496C33.9205 6.496 34.0285 6.496 34.1245 6.508V8.44C33.9085 8.416 33.7645 8.404 33.5845 8.404C32.6365 8.404 32.1325 8.752 32.1325 9.76V13H30.1525Z" fill="black"/>
<path d="M21.84 13V4.29999H25.632C27.54 4.29999 28.956 4.74399 28.956 6.55599C28.956 7.34799 28.584 7.95999 27.924 8.36799C28.728 8.65599 29.304 9.26799 29.304 10.324C29.304 12.268 27.9 13 25.788 13H21.84ZM23.892 11.272H25.812C26.688 11.272 27.132 10.9 27.132 10.288C27.132 9.67599 26.688 9.30399 25.812 9.30399H23.892V11.272ZM23.892 7.77999H25.704C26.412 7.77999 26.82 7.43199 26.82 6.89199C26.82 6.35199 26.412 6.02799 25.704 6.02799H23.892V7.77999Z" fill="black"/>
<defs>
<clipPath id="clip0_41_19">
<rect width="17" height="17" rx="5.5" fill="white"/>
</clipPath>
</defs>
</svg>
