<svg fill="none" height="80" viewBox="0 0 244 80" width="244" xmlns="http://www.w3.org/2000/svg" xmlns:xlink="http://www.w3.org/1999/xlink"><clipPath id="a"><rect height="80" rx="23.0407" width="80"/></clipPath><g clip-path="url(#a)"><rect fill="#97df68" height="80" rx="23.0407" width="80"/><path d="m14.805 27.6927c2.5101-.4144 4.9802.2945 7.2752 1.959 1.873 1.3585 2.7405 3.3121 3.0173 5.3054.2663 1.9187.0123 4.0025-.4314 6.0123-.8804 3.9881-2.7547 8.6676-4.2767 12.7888-1.6119 4.3645-2.7947 8.0218-2.8446 10.6157-.0238 1.2389.2271 1.8379.4484 2.124.1736.2245.6139.63 1.95.7839 3.448.3973 4.5221-.2439 4.8332-.524.3544-.3193.6517-.9611.8272-2.7161.0405-.405.0718-.8212.1072-1.2841.0344-.4498.0727-.9421.1248-1.4359.1031-.9754.2737-2.1031.6625-3.2055.3992-1.1318 1.045-2.2854 2.1166-3.2527 1.0728-.9684 2.4166-1.6096 3.9959-1.9572 1.5001-.3301 2.9816-.3723 4.3509.0887 1.4329.4825 2.4482 1.4166 3.1307 2.4963.6433 1.0179.9861 2.1526 1.2025 3.149.2185 1.0058.3482 2.0749.4592 3.0166.2455 2.083.427 3.5344.9063 4.5524.2027.4306.4005.6393.5713.7573.1611.1114.4859.2732 1.1708.2985 1.1737.0434 1.6163-.2638 1.8335-.4786.3025-.2992.6612-.9273.8837-2.1929.4624-2.6298.0933-6.3128-.3083-10.5551-.1915-2.0228-.3812-4.1334-.419-6.101-.0374-1.9445.0661-3.9488.5561-5.7188.4969-1.7948 1.4772-3.6357 3.3921-4.7631 1.8918-1.1138 4.1558-1.2113 6.5358-.715 2.1019.4382 3.2764 1.984 3.8825 3.439.5775 1.3865.806 3.0362.9134 4.5987.1103 1.6066.1062 3.3983.0859 5.1762-.0208 1.8161-.0584 3.6255-.0309 5.421.0566 3.6991.4003 6.6901 1.3552 8.601.438.8766.9411 1.3906 1.5026 1.6902.5661.302 1.4699.5343 2.9669.3547.2286-.0274.3778-.0638.4703-.0936.0118-.1061.0194-.2874-.0083-.5713-.0672-.6879-.3005-1.6051-.6977-2.7883-.3952-1.1773-.8787-2.4101-1.3976-3.7923-.9516-2.5347-2.1288-5.7818-2.0137-8.6344.0621-1.5386.501-3.1885 1.7177-4.5694 1.2065-1.3692 2.8957-2.1531 4.8375-2.5238 1.9055-.3637 3.6783-.0073 5.201.9165 1.453.8815 2.5443 2.1941 3.3741 3.5673 1.6406 2.7147 2.6459 6.3219 3.2927 9.6788.6587 3.4193.9966 6.8658 1.1713 9.4347.0878 1.2901.1352 2.372.1607 3.1347.0128.3816.0203.6841.0244.8936.0021.1048.0033.1865.004.2432.0004.0283.0008.0504.001.0661 0 .0079-.0001.0142 0 .0188 0 .0023.0003.0041.0003.0056v.0019c0 .0007-.0001.0015-2.8477.0238-2.822.0221-2.8474.0225-2.8476.0228v-.012c-.0001-.0103-.0003-.0271-.0007-.0498-.0006-.0454-.0018-.1153-.0037-.2079-.0036-.1855-.0101-.462-.0219-.8158-.0237-.7081-.0681-1.7236-.1508-2.9385-.1661-2.4412-.4831-5.6364-1.0818-8.7438-.6107-3.17-1.4652-5.9751-2.5745-7.8106-.545-.902-1.0511-1.3991-1.4541-1.6436-.3333-.2021-.6752-.2877-1.1788-.1915-1.1131.2125-1.5023.5474-1.6321.6946-.1194.1356-.2747.3997-.3003 1.0339-.0603 1.4929.6129 3.6274 1.6549 6.4029.4779 1.2729 1.0272 2.6775 1.465 3.9813.4356 1.2977.8357 2.7055.9668 4.0478.1284 1.3151.0411 2.9863-.9702 4.4383-1.0696 1.5356-2.7414 2.226-4.4819 2.4349-2.3599.2831-4.4969-.009-6.326-.9848-1.8335-.9781-3.0801-2.4953-3.9165-4.1689-1.5939-3.1896-1.8989-7.3765-1.9552-11.06-.0291-1.8958.0106-3.8292.0305-5.5729.0204-1.7819.0204-3.3673-.0726-4.7211-.096-1.3979-.2781-2.2923-.4891-2.7988-.017-.041-.0331-.0751-.0467-.1039-1.4179-.2566-2.0147-.026-2.2247.0977-.1992.1173-.5274.4171-.7925 1.3747-.272.9823-.3843 2.3423-.3508 4.0898.0332 1.7242.2011 3.6332.3943 5.6737.3678 3.8845.8766 8.5036.2481 12.0781-.3228 1.8364-1.0019 3.786-2.4886 5.2562-1.572 1.5546-3.6703 2.2083-6.0488 2.1203-1.5774-.0584-2.9988-.4753-4.1985-1.3045-1.1901-.8226-1.9678-1.9164-2.4859-3.0167-.9623-2.0442-1.2039-4.5696-1.4093-6.3118-.1144-.9707-.217-1.7763-.3686-2.4741-.1536-.7071-.3186-1.1051-.4514-1.3153-.0937-.1482-.1229-.1379-.1338-.1415-.0746-.0251-.4363-.1161-1.3092.076-.7937.1747-1.1902.4295-1.4041.6226-.2149.194-.4023.4674-.5617.9195-.1698.4816-.2835 1.095-.3696 1.9096-.0423.4011-.075.8161-.11 1.2721-.0339.4429-.0705.9315-.1189 1.4161-.1804 1.8037-.5754 4.4832-2.683 6.3813-2.1509 1.9371-5.3088 2.4095-9.2963 1.95-2.3815-.2744-4.4316-1.184-5.8034-2.9579-1.3242-1.7124-1.674-3.7952-1.6371-5.7176.0718-3.7288 1.6572-8.3128 3.1959-12.4792 1.6286-4.4095 3.2872-8.5505 4.0583-12.0435.382-1.7307.4833-3.0529.3516-4.0014-.1213-.874-.4054-1.2496-.7202-1.4779-1.304-.9458-2.2652-1.0721-3.0037-.9502-.8285.1368-1.8484.6674-3.0402 1.8623-2.4345 2.4408-4.73865 6.7896-6.7406 11.8677-1.9664 4.9879-3.50974 10.33-4.56503 14.4536-.525932 2.0552-.927096 3.7934-1.196101 5.0147-.1344483.6103-.2355939 1.0911-.302811 1.4167-.033577.1626-.05865.2865-.075085.3686-.008218.041-.014348.0718-.01823.0915-.001934.0098-.003477.0169-.004326.0213-.000408.0021-.000467.0035-.000618.0043-.000074.0004-.000274.0004-.000309.0006-.001889-.0005-.073972-.0147-2.79513-.5441-2.79525-.5438-2.79498-.5446-2.79482-.5454.00011-.0005.00013-.0015.00031-.0024.00039-.002.00089-.0047.00155-.0081.00134-.0068.00342-.0166.00587-.029.00489-.0248.01204-.0606.02132-.1069.01856-.0927.04561-.2279.08157-.402.07191-.3483.17864-.8536.31888-1.4903.28038-1.2729.69623-3.0744 1.2406-5.2015 1.08539-4.2413 2.69624-9.8351 4.783787-15.1304 2.051993-5.205 4.701623-10.4869 8.006873-13.8007 1.678-1.6824 3.7247-3.0602 6.1449-3.4598z" fill="#305517"/></g><g fill="#305517"><path d="m226.972 63.0466c-8.902 0-17.028-5.3175-17.028-16.9682 0-11.6506 8.126-16.9084 17.028-16.9084s17.028 5.2578 17.028 16.9084c0 11.6507-8.126 16.9682-17.028 16.9682zm0-7.6476c4.003 0 6.991-2.5691 6.991-9.3206 0-6.8111-3.107-9.2607-6.991-9.2607-3.883 0-6.99 2.4496-6.99 9.2607 0 6.7515 2.987 9.3206 6.99 9.3206z"/><path d="m195.661 62.2699v-43.3166h9.858v43.3166z"/><path d="m179.585 62.2699v-43.3166h9.858v43.3166z"/><path d="m163.509 62.2699v-32.1439h9.859v32.1439zm0-35.43v-7.8866h9.859v7.8866z"/><path d="m139.965 62.3596v-32.1439h9.5v6.0942c1.494-3.7641 4.182-6.154 8.783-6.3332.478 0 1.016 0 1.494.0597v9.6193c-1.076-.1195-1.793-.1792-2.689-.1792-4.72 0-7.229 1.7326-7.229 6.7514v16.1317z"/><path d="m98.5786 62.2699v-43.3166h18.8804c9.499 0 16.55 2.2106 16.55 11.2324 0 3.9433-1.853 6.9904-5.139 9.0218 4.003 1.434 6.871 4.4811 6.871 9.7388 0 9.679-6.99 13.3236-17.506 13.3236zm10.2164-8.6036h9.56c4.361 0 6.572-1.8521 6.572-4.8992s-2.211-4.8993-6.572-4.8993h-9.56zm0-17.3864h9.022c3.525 0 5.557-1.7326 5.557-4.4212 0-2.6887-2.032-4.3018-5.557-4.3018h-9.022z"/></g></svg>