<svg width="256" height="256" viewBox="0 0 256 256" fill="none" xmlns="http://www.w3.org/2000/svg">
<path d="M49.7227 105.282C52.0568 104.897 55.0945 105.296 59.2158 108.285C60.2109 109.007 61.1086 110.194 61.4922 112.956C61.9084 115.954 61.5882 120.133 60.3809 125.603C57.9439 136.642 52.7017 149.73 47.5547 163.666C42.6916 176.834 37.6809 191.322 37.4541 203.106C37.3372 209.182 38.4429 215.765 42.6279 221.177C46.9636 226.783 53.4429 229.658 60.9697 230.525C73.5722 231.977 83.5526 230.485 90.3506 224.362C97.0116 218.363 98.2599 209.895 98.8301 204.194C98.9833 202.663 99.0989 201.119 99.2061 199.719C99.3164 198.277 99.4198 196.966 99.5537 195.698C99.8257 193.124 100.185 191.185 100.722 189.663C101.226 188.234 101.818 187.37 102.497 186.757C103.173 186.147 104.426 185.341 106.935 184.789C109.693 184.182 110.837 184.469 111.072 184.549C111.107 184.56 111.199 184.528 111.495 184.996C111.915 185.66 112.436 186.918 112.922 189.153C113.401 191.358 113.725 193.905 114.087 196.973C114.736 202.479 115.499 210.46 118.541 216.921C120.178 220.399 122.636 223.855 126.397 226.455C130.189 229.076 134.682 230.394 139.667 230.578C147.184 230.856 153.816 228.79 158.784 223.877C163.483 219.23 165.629 213.069 166.649 207.265C168.636 195.967 167.028 181.369 165.865 169.092C165.255 162.643 164.724 156.609 164.619 151.16C164.513 145.637 164.868 141.339 165.728 138.234C166.565 135.208 167.603 134.26 168.232 133.89C168.896 133.499 170.782 132.77 175.264 133.581C175.307 133.672 175.357 133.78 175.411 133.909C176.078 135.51 176.654 138.337 176.957 142.755C177.251 147.034 177.251 152.044 177.187 157.676C177.124 163.187 176.998 169.297 177.09 175.289C177.268 186.931 178.232 200.163 183.27 210.244C185.913 215.534 189.853 220.328 195.647 223.42C201.428 226.504 208.182 227.427 215.641 226.532C221.142 225.872 226.425 223.69 229.806 218.837C233.002 214.248 233.278 208.966 232.872 204.81C232.458 200.567 231.193 196.118 229.816 192.017C228.433 187.896 226.697 183.457 225.187 179.434C221.893 170.662 219.766 163.916 219.956 159.197C220.037 157.193 220.528 156.358 220.905 155.93C221.315 155.464 222.545 154.406 226.063 153.734C227.655 153.431 228.736 153.701 229.789 154.34C231.063 155.112 232.662 156.684 234.385 159.534C237.891 165.335 240.591 174.201 242.521 184.22C244.413 194.041 245.416 204.139 245.94 211.854C246.135 214.71 246.261 217.216 246.345 219.234C245.471 220.882 244.519 222.469 243.479 224.005C238.286 231.676 231.676 238.286 224.005 243.479C205.512 256 179.675 256 128 256C76.3252 256 50.4877 256 31.9951 243.479C24.3239 238.286 17.7142 231.676 12.5205 224.005C7.87282 217.14 4.95081 209.263 3.11328 199.428C3.507 197.82 3.93013 196.125 4.38281 194.356C7.71806 181.324 12.5958 164.44 18.8105 148.676C25.1377 132.626 32.4199 118.882 40.1143 111.168C43.8809 107.392 47.1042 105.715 49.7227 105.282ZM128 0C179.675 0 205.512 0.00047197 224.005 12.5205C231.676 17.7142 238.286 24.3239 243.479 31.9951C256 50.4877 256 76.3252 256 128C256 141.509 255.997 153.253 255.773 163.561C254.149 158.751 252.184 154.187 249.79 150.225C247.167 145.885 243.718 141.736 239.126 138.95C234.314 136.031 228.711 134.904 222.688 136.054C216.551 137.225 211.213 139.703 207.399 144.03C203.554 148.394 202.167 153.609 201.971 158.472C201.607 167.487 205.327 177.75 208.335 185.761C209.975 190.129 211.503 194.026 212.752 197.746C214.007 201.486 214.745 204.385 214.957 206.559C215.045 207.456 215.021 208.029 214.983 208.364C214.691 208.459 214.219 208.573 213.497 208.66C208.766 209.228 205.909 208.493 204.12 207.539C202.345 206.592 200.756 204.968 199.371 202.197C196.353 196.158 195.267 186.705 195.088 175.014C195.001 169.339 195.12 163.621 195.186 157.881C195.25 152.262 195.263 146.599 194.914 141.521C194.575 136.583 193.853 131.369 192.027 126.987C190.112 122.389 186.4 117.503 179.757 116.118C172.235 114.55 165.08 114.858 159.101 118.378C153.048 121.941 149.95 127.759 148.38 133.432C146.831 139.026 146.504 145.361 146.622 151.506C146.742 157.725 147.341 164.395 147.946 170.788C149.216 184.196 150.382 195.836 148.921 204.147C148.218 208.147 147.084 210.133 146.128 211.078C145.442 211.757 144.043 212.728 140.333 212.591C138.168 212.511 137.142 211.999 136.633 211.647C136.093 211.274 135.468 210.615 134.827 209.254C133.313 206.037 132.739 201.449 131.963 194.866C131.612 191.89 131.202 188.511 130.512 185.332C129.828 182.183 128.744 178.597 126.711 175.38C124.554 171.967 121.345 169.015 116.816 167.49C112.489 166.033 107.807 166.166 103.065 167.21C98.074 168.309 93.827 170.335 90.4365 173.396C87.0497 176.453 85.0088 180.099 83.7471 183.676C82.5183 187.16 81.979 190.724 81.6533 193.807C81.4884 195.367 81.3676 196.923 81.2588 198.345C81.1467 199.808 81.048 201.123 80.9199 202.403C80.3651 207.95 79.4257 209.978 78.3057 210.987C77.3225 211.873 73.9277 213.899 63.0303 212.644C58.8076 212.157 57.4161 210.876 56.8672 210.166C56.1681 209.262 55.3749 207.369 55.4502 203.453C55.6079 195.255 59.3461 183.696 64.4404 169.902C69.2508 156.877 75.1746 142.088 77.957 129.483C79.3592 123.131 80.1622 116.546 79.3203 110.481C78.4456 104.182 75.704 98.0074 69.7842 93.7139C62.5308 88.4532 54.7243 86.2127 46.791 87.5225C39.142 88.7854 32.6735 93.1399 27.3701 98.457C16.9239 108.93 8.54976 125.624 2.06445 142.074C1.36955 143.837 0.691566 145.61 0.0302734 147.388C0.000339304 141.358 0 134.91 0 128C0 76.3252 0.00047197 50.4877 12.5205 31.9951C17.7142 24.3239 24.3239 17.7142 31.9951 12.5205C50.4877 0.000472586 76.3252 0 128 0Z" fill="#97DF68"/>
</svg>
