<svg fill="none" height="80" viewBox="0 0 80 80" width="80" xmlns="http://www.w3.org/2000/svg" xmlns:xlink="http://www.w3.org/1999/xlink"><clipPath id="a"><rect height="80" rx="23.0407" width="80"/></clipPath><g clip-path="url(#a)"><rect fill="#97df68" height="80" rx="23.0407" width="80"/><path d="m14.805 27.6927c2.5101-.4144 4.9802.2945 7.2752 1.959 1.873 1.3585 2.7405 3.3121 3.0173 5.3053.2663 1.9188.0123 4.0025-.4314 6.0124-.8804 3.9881-2.7547 8.6676-4.2767 12.7888-1.6119 4.3644-2.7947 8.0218-2.8446 10.6157-.0238 1.2389.2271 1.8379.4484 2.124.1736.2245.6139.6299 1.95.7839 3.448.3972 4.5221-.2439 4.8332-.5241.3544-.3192.6517-.961.8272-2.716.0405-.405.0718-.8212.1072-1.2842.0345-.4497.0727-.942.1248-1.4358.1031-.9754.2737-2.1031.6625-3.2055.3992-1.1318 1.045-2.2854 2.1166-3.2528 1.0728-.9683 2.4166-1.6095 3.9959-1.9571 1.5001-.3302 2.9816-.3724 4.3509.0887 1.4329.4825 2.4482 1.4165 3.1307 2.4963.6433 1.0179.9861 2.1526 1.2025 3.1489.2185 1.0058.3482 2.0749.4592 3.0167.2455 2.0829.427 3.5344.9063 4.5524.2027.4306.4005.6393.5713.7573.1611.1113.4859.2731 1.1708.2985 1.1737.0434 1.6163-.2639 1.8335-.4786.3025-.2992.6612-.9273.8837-2.1929.4624-2.6299.0933-6.3128-.3083-10.5552-.1915-2.0228-.3812-4.1333-.419-6.101-.0374-1.9444.0661-3.9488.5561-5.7188.4969-1.7947 1.4772-3.6357 3.3921-4.7631 1.8918-1.1137 4.1558-1.2112 6.5358-.715 2.1019.4383 3.2764 1.9841 3.8825 3.4391.5775 1.3864.806 3.0361.9134 4.5987.1103 1.6065.1062 3.3983.0858 5.1762-.0207 1.8161-.0583 3.6254-.0308 5.4209.0566 3.6992.4003 6.6902 1.3552 8.6011.438.8766.9411 1.3906 1.5026 1.6902.5661.3019 1.4699.5343 2.9669.3547.2286-.0274.3778-.0638.4703-.0936.0118-.1061.0194-.2874-.0083-.5713-.0672-.6879-.3005-1.6051-.6977-2.7884-.3952-1.1772-.8787-2.41-1.3976-3.7922-.9516-2.5347-2.1288-5.7818-2.0137-8.6344.0621-1.5386.501-3.1886 1.7177-4.5694 1.2065-1.3693 2.8957-2.1531 4.8376-2.5238 1.9054-.3638 3.6782-.0073 5.2009.9164 1.453.8816 2.5443 2.1942 3.3741 3.5673 1.6406 2.7148 2.6459 6.322 3.2927 9.6788.6587 3.4194.9966 6.8659 1.1713 9.4348.0878 1.2901.1352 2.3719.1607 3.1347.0128.3816.0203.684.0244.8936.0021.1048.0033.1864.004.2431.0004.0284.0008.0505.001.0662 0 .0078-.0001.0142 0 .0188 0 .0023.0003.0041.0003.0056v.0018c0 .0007-.0001.0015-2.8477.0238-2.822.0221-2.8474.0226-2.8476.0229v-.0121c-.0002-.0102-.0003-.027-.0007-.0497-.0006-.0454-.0018-.1153-.0037-.208-.0036-.1854-.0101-.4619-.0219-.8157-.0237-.7081-.0682-1.7236-.1508-2.9385-.1661-2.4412-.4831-5.6364-1.0818-8.7438-.6107-3.1701-1.4652-5.9751-2.5745-7.8107-.545-.9019-1.0511-1.399-1.4541-1.6435-.3333-.2022-.6752-.2877-1.1788-.1916-1.1131.2126-1.5023.5475-1.6321.6947-.1194.1355-.2747.3997-.3003 1.0338-.0603 1.493.6129 3.6275 1.655 6.4029.4778 1.2729 1.0271 2.6775 1.4649 3.9814.4356 1.2977.8357 2.7054.9668 4.0478.1284 1.3151.0411 2.9863-.9702 4.4383-1.0696 1.5356-2.7414 2.226-4.4819 2.4348-2.3599.2832-4.4969-.009-6.326-.9847-1.8335-.9782-3.0801-2.4953-3.9165-4.1689-1.5939-3.1896-1.8989-7.3765-1.9552-11.06-.0291-1.8958.0106-3.8292.0305-5.573.0204-1.7818.0204-3.3672-.0726-4.721-.096-1.3979-.2781-2.2923-.4891-2.7989-.017-.0409-.0331-.075-.0467-.1038-1.4179-.2566-2.0147-.026-2.2247.0976-.1992.1174-.5274.4172-.7925 1.3747-.272.9824-.3843 2.3424-.3508 4.0898.0332 1.7242.2011 3.6332.3943 5.6737.3678 3.8846.8766 8.5037.2481 12.0782-.3228 1.8363-1.0019 3.786-2.4886 5.2562-1.572 1.5546-3.6703 2.2083-6.0488 2.1203-1.5774-.0584-2.9988-.4753-4.1985-1.3046-1.1901-.8226-1.9678-1.9163-2.4859-3.0166-.9623-2.0442-1.2039-4.5697-1.4093-6.3118-.1144-.9707-.217-1.7763-.3686-2.4741-.1536-.7072-.3186-1.1052-.4514-1.3154-.0937-.1482-.1229-.1378-.1338-.1415-.0746-.0251-.4363-.1161-1.3092.076-.7937.1747-1.1902.4296-1.4041.6227-.2149.194-.4023.4674-.5617.9195-.1698.4815-.2835 1.095-.3696 1.9096-.0423.4011-.075.816-.11 1.2721-.0339.4429-.0705.9314-.1189 1.4161-.1804 1.8037-.5754 4.4832-2.683 6.3813-2.1509 1.9371-5.3088 2.4094-9.2963 1.95-2.3815-.2744-4.4316-1.1841-5.8034-2.958-1.3242-1.7123-1.674-3.7952-1.6371-5.7175.0718-3.7288 1.6572-8.3129 3.1959-12.4792 1.6286-4.4096 3.2872-8.5505 4.0583-12.0435.382-1.7307.4833-3.0529.3516-4.0015-.1213-.8739-.4054-1.2495-.7202-1.4779-1.304-.9457-2.2652-1.0721-3.0037-.9501-.8285.1368-1.8484.6674-3.0402 1.8623-2.4345 2.4408-4.73865 6.7895-6.7406 11.8677-1.9664 4.9879-3.50974 10.3299-4.56503 14.4536-.525932 2.0552-.927096 3.7934-1.196101 5.0146-.1344485.6104-.2355937 1.0911-.302811 1.4167-.033578.1627-.05865.2866-.075085.3687-.008218.041-.014348.0718-.01823.0914-.001933.0098-.003477.017-.004326.0214-.000408.002-.000467.0035-.000618.0043-.000073.0004-.000274.0004-.000309.0006-.001889-.0005-.073972-.0148-2.79513-.5441-2.79525-.5438-2.79498-.5446-2.79482-.5454.00011-.0005.00013-.0015.00031-.0025.00039-.002.00089-.0047.00155-.008.00134-.0069.00342-.0167.00587-.0291.00489-.0248.01204-.0605.02132-.1069.01856-.0927.04561-.2278.08157-.402.07191-.3483.17864-.8535.31888-1.4902.28038-1.2729.69623-3.0744 1.2406-5.2016 1.08539-4.2413 2.69624-9.8351 4.783787-15.1303 2.051993-5.2051 4.701623-10.4869 8.006873-13.8008 1.678-1.6823 3.7247-3.0601 6.1449-3.4597z" fill="#305517"/></g></svg>